<?xml version="1.0" encoding="UTF-8"?>
<svg version="1.1" xmlns="http://www.w3.org/2000/svg" width="600" height="600">
<path d="M0 0 C198 0 396 0 600 0 C600 198 600 396 600 600 C402 600 204 600 0 600 C0 402 0 204 0 0 Z " fill="#FEFEFE" transform="translate(0,0)"/>
<path d="M0 0 C3.99090006 2.06935559 6.60028947 4.22213873 9 8 C9.37752342 10.1453476 9.37752342 10.1453476 9.38095093 12.50036621 C9.3894104 13.39725159 9.39786987 14.29413696 9.40658569 15.21820068 C9.39747665 16.68316986 9.39747665 16.68316986 9.38818359 18.17773438 C9.39606903 19.7297757 9.39606903 19.7297757 9.40411377 21.31317139 C9.41733532 24.7401838 9.40856263 28.16673268 9.3984375 31.59375 C9.40045884 33.98067311 9.40337078 36.36759561 9.40713501 38.7545166 C9.41156232 43.76478945 9.40511864 48.77490202 9.39111328 53.78515625 C9.37409537 60.18267472 9.38381317 66.57981355 9.40183067 72.97731781 C9.41272077 77.91209725 9.40919697 82.84678819 9.4014473 87.78157043 C9.39945586 90.13849432 9.40186715 92.49542642 9.40888596 94.8523407 C9.46140477 117.46399423 6.67219518 136.17198991 -10 153 C-24.45221427 165.65069172 -41.87048708 173.17313173 -61.23046875 172.30859375 C-78.12285166 170.92569401 -93.90061996 162.79222925 -105 150 C-108.33000141 145.87114397 -111.22277667 141.52037414 -114 137 C-114.66128906 135.93845703 -114.66128906 135.93845703 -115.3359375 134.85546875 C-122.73731438 121.63872432 -123.05136067 103.06358436 -119.9375 88.5 C-114.42221172 70.60708319 -101.95501923 57.4218013 -85.9453125 48.25 C-77.79524864 44.10522425 -70.07939336 42.59476067 -61 42 C-59.77152344 41.9175 -58.54304688 41.835 -57.27734375 41.75 C-41.9247341 41.23340325 -30.1856723 45.57443735 -17 53 C-17.0314209 51.04779541 -17.0314209 51.04779541 -17.06347656 49.05615234 C-17.13603193 44.21446797 -17.18185647 39.3728314 -17.21972656 34.53076172 C-17.23980659 32.43758047 -17.2670764 30.34445508 -17.30175781 28.25146484 C-17.35043434 25.23781531 -17.37300512 22.22490927 -17.390625 19.2109375 C-17.41127014 18.27945892 -17.43191528 17.34798035 -17.45318604 16.38827515 C-17.45557706 9.42027394 -15.97260056 6.30288951 -11.3125 1.125 C-7.5965259 -0.68277118 -4.04437154 -0.63895453 0 0 Z " fill="#909090" transform="translate(286,214)"/>
<path d="M0 0 C0.91789307 0.01160156 1.83578613 0.02320313 2.78149414 0.03515625 C21.11227601 0.47410093 34.88726971 7.36757174 47.6875 20.375 C48.32171875 21.01050781 48.9559375 21.64601563 49.609375 22.30078125 C61.71113958 35.2325341 66.34357527 50.26765531 66.15820312 67.61694336 C65.56595203 85.00801883 58.01194326 101.0692869 45.6875 113.375 C29.24163423 126.89478316 11.66102245 132.19443374 -9.3125 130.375 C-26.490746 127.88157699 -41.94434396 118.23317417 -52.3125 104.375 C-63.28661354 88.29726258 -66.30076992 71.11848269 -63.8828125 51.97265625 C-59.99530521 34.09492212 -48.47317513 19.31168883 -33.3125 9.375 C-22.61840894 3.5790667 -12.21270775 -0.1997432 0 0 Z " fill="#909090" transform="translate(367.3125,255.625)"/>
<path d="M0 0 C4.28297149 3.38298964 8.16487831 7.12376674 12 11 C12.60457031 11.58265625 13.20914063 12.1653125 13.83203125 12.765625 C24.94229958 24.37424309 28.51795514 40.59947004 28.41992188 56.09008789 C27.93488291 73.5499359 20.37126334 89.64753798 8 102 C-8.77031753 115.78650779 -25.76694892 120.5344354 -47 119 C-62.53753564 117.0810215 -77.23761998 108.38542312 -87.1484375 96.40234375 C-100.00396546 79.41297502 -104.21978419 61.52043948 -101.5625 40.546875 C-98.0315371 24.03962344 -87.98464662 10.43845173 -74.5 0.58984375 C-51.42895839 -14.08189678 -22.91231036 -16.47457395 0 0 Z " fill="#A3488A" transform="translate(132,267)"/>
<path d="M0 0 C1.33417969 -0.00483398 1.33417969 -0.00483398 2.6953125 -0.00976562 C19.16641176 0.1234565 34.68685143 7.75082035 46.5625 18.9375 C59.40987376 32.35677593 65.79869869 48.07242267 65.67089844 66.37792969 C65.23692977 84.24419914 58.81738367 99.06974149 46.2265625 111.65625 C31.49199108 125.3816042 13.80098681 131.31269952 -6.1953125 130.65625 C-23.52437861 129.61098104 -37.99761979 120.64094284 -49.625 108.3125 C-59.84163367 96.24696061 -65.05651975 82.12685708 -64.875 66.4375 C-64.86533203 65.55545898 -64.85566406 64.67341797 -64.84570312 63.76464844 C-64.52078658 46.1476731 -58.26995752 30.91744183 -45.625 18.3125 C-32.81993301 6.98217388 -17.20462416 -0.31441199 0 0 Z " fill="#909090" transform="translate(504.625,255.6875)"/>
<path d="M0 0 C0.77988281 0.06960938 1.55976563 0.13921875 2.36328125 0.2109375 C12.75915828 1.70316865 21.70406936 7.49099272 28.3125 15.53125 C35.23226117 25.6546043 37.28050118 35.93284256 35.375 47.9375 C32.37874768 58.23711735 26.24372413 67.32438862 16.9609375 72.7890625 C6.81179641 77.9994488 -2.98805914 79.9437253 -14.30078125 77.19921875 C-25.61457902 72.92903049 -33.90052155 64.9058153 -39 54 C-42.9148377 44.59248128 -43.31962458 35.08321546 -40.0390625 25.41015625 C-35.94213839 15.90714055 -28.6061589 7.1749101 -19 3 C-12.61865646 0.53665274 -6.82394052 -0.63423888 0 0 Z " fill="#FDFDFD" transform="translate(371,282)"/>
<path d="M0 0 C8.95642052 6.75446495 15.13457533 16.0789597 17.02734375 27.203125 C18.18108958 39.34582699 14.1200096 49.72008156 6.50390625 59.07421875 C-0.11775307 66.30208632 -9.37442264 70.59202452 -19.09375 71.4921875 C-30.35479853 71.96088393 -38.70270317 69.29286909 -47.34765625 62.015625 C-55.37444097 54.27274585 -60.11186092 45.3690578 -60.45532227 34.1730957 C-60.53875147 21.68339069 -58.31881285 13.51319937 -49.53515625 4.203125 C-35.12717213 -9.10024701 -16.60414294 -10.03666985 0 0 Z " fill="#FEFDFD" transform="translate(116.97265625,288.796875)"/>
<path d="M0 0 C7.53999285 5.7565285 14.03089623 13.77571098 15.66796875 23.2734375 C16.71815091 35.69411043 15.4288755 46.55359509 7.2890625 56.5 C-0.1518377 64.64016551 -8.92130425 69.80146865 -20.046875 70.42578125 C-32.38956852 70.81489517 -41.51010161 66.95424668 -50.51953125 58.5859375 C-58.96839031 49.78850076 -61.91027683 38.87233372 -61.70703125 26.90625 C-60.73839128 17.5225503 -56.03577074 8.85092954 -49.33203125 2.2734375 C-33.9539809 -9.84474965 -16.44434076 -11.18893289 0 0 Z " fill="#FDFDFD" transform="translate(527.33203125,289.7265625)"/>
<path d="M0 0 C11.20526384 6.37759915 19.34290528 14.8097507 23.00390625 27.56640625 C25.13333566 38.90417906 22.28559179 48.97007951 16.15625 58.5546875 C10.10275527 66.72690539 1.92298744 70.71317085 -7.5625 73.875 C-18.91955504 74.79521266 -27.84695646 74.53052983 -37.5625 67.875 C-38.24699219 67.40707031 -38.93148437 66.93914062 -39.63671875 66.45703125 C-46.97870035 60.77137522 -52.06208353 52.01306736 -54.25 43.0625 C-55.47715911 30.54547705 -53.47981167 20.87875615 -45.5625 10.875 C-34.42399446 -2.40038909 -15.88703395 -8.15610668 0 0 Z " fill="#FDFDFD" transform="translate(245.5625,285.125)"/>
</svg>
